%TF.GenerationSoftware,KiCad,Pcbnew,10.0.3*%
%TF.CreationDate,2026-08-02T19:16:03-04:00*%
%TF.ProjectId,alarm,616c6172-6d2e-46b6-9963-61645f706362,rev?*%
%TF.SameCoordinates,Original*%
%TF.FileFunction,Copper,L2,Bot*%
%TF.FilePolarity,Positive*%
%FSLAX46Y46*%
G04 Gerber Fmt 4.6, Leading zero omitted, Abs format (unit mm)*
G04 Created by KiCad (PCBNEW 10.0.3) date 2026-08-02 19:16:03*
%MOMM*%
%LPD*%
G01*
G04 APERTURE LIST*
G04 Aperture macros list*
%AMRoundRect*
0 Rectangle with rounded corners*
0 $1 Rounding radius*
0 $2 $3 $4 $5 $6 $7 $8 $9 X,Y pos of 4 corners*
0 Add a 4 corners polygon primitive as box body*
4,1,4,$2,$3,$4,$5,$6,$7,$8,$9,$2,$3,0*
0 Add four circle primitives for the rounded corners*
1,1,$1+$1,$2,$3*
1,1,$1+$1,$4,$5*
1,1,$1+$1,$6,$7*
1,1,$1+$1,$8,$9*
0 Add four rect primitives between the rounded corners*
20,1,$1+$1,$2,$3,$4,$5,0*
20,1,$1+$1,$4,$5,$6,$7,0*
20,1,$1+$1,$6,$7,$8,$9,0*
20,1,$1+$1,$8,$9,$2,$3,0*%
G04 Aperture macros list end*
%TA.AperFunction,ComponentPad*%
%ADD10RoundRect,0.250000X-0.750000X-0.750000X0.750000X-0.750000X0.750000X0.750000X-0.750000X0.750000X0*%
%TD*%
%TA.AperFunction,ComponentPad*%
%ADD11C,2.000000*%
%TD*%
%TA.AperFunction,ComponentPad*%
%ADD12C,2.200000*%
%TD*%
%TA.AperFunction,ComponentPad*%
%ADD13R,1.350000X1.350000*%
%TD*%
%TA.AperFunction,ComponentPad*%
%ADD14C,1.350000*%
%TD*%
%TA.AperFunction,ComponentPad*%
%ADD15R,2.000000X2.000000*%
%TD*%
%TA.AperFunction,ComponentPad*%
%ADD16O,2.000000X1.600000*%
%TD*%
%TA.AperFunction,ViaPad*%
%ADD17C,0.600000*%
%TD*%
%TA.AperFunction,Conductor*%
%ADD18C,0.200000*%
%TD*%
G04 APERTURE END LIST*
D10*
%TO.P,D15,1,K_1*%
%TO.N,/ROW0*%
X116250000Y-47000000D03*
D11*
%TO.P,D15,2,A_2*%
%TO.N,Net-(D15-A)*%
X126410000Y-47000000D03*
%TD*%
D12*
%TO.P,SW2,1,1_1*%
%TO.N,/COL1*%
X68290000Y-54170000D03*
%TO.P,SW2,2,2_2*%
%TO.N,Net-(D14-A)*%
X61940000Y-56710000D03*
%TD*%
D13*
%TO.P,J1,1,Pin_1_1*%
%TO.N,GND*%
X88250000Y-73750000D03*
D14*
%TO.P,J1,2,Pin_2_2*%
%TO.N,/VCC*%
X88250000Y-75750000D03*
%TO.P,J1,3,Pin_3_3*%
%TO.N,/SCL*%
X88250000Y-77750000D03*
%TO.P,J1,4,Pin_4_4*%
%TO.N,/SDA*%
X88250000Y-79750000D03*
%TO.P,J1,5,Pin_5_5*%
%TO.N,/RST*%
X88250000Y-81750000D03*
%TO.P,J1,6,Pin_6_6*%
%TO.N,/DC*%
X88250000Y-83750000D03*
%TO.P,J1,7,Pin_7_7*%
%TO.N,/CS*%
X88250000Y-85750000D03*
%TO.P,J1,8,Pin_8_8*%
%TO.N,/BL*%
X88250000Y-87750000D03*
%TD*%
D10*
%TO.P,D13,1,K_1*%
%TO.N,/ROW0*%
X116170000Y-35000000D03*
D11*
%TO.P,D13,2,A_2*%
%TO.N,Net-(D13-A)*%
X126330000Y-35000000D03*
%TD*%
D10*
%TO.P,C1,1*%
%TO.N,GND*%
X131080000Y-45992500D03*
D11*
%TO.P,C1,2*%
%TO.N,+3V3*%
X146080000Y-45992500D03*
%TD*%
D10*
%TO.P,D17,1,K_1*%
%TO.N,/ROW1*%
X116250000Y-53000000D03*
D11*
%TO.P,D17,2,A_2*%
%TO.N,Net-(D17-A)*%
X126410000Y-53000000D03*
%TD*%
D12*
%TO.P,SW6,1,1_1*%
%TO.N,/COL1*%
X106540000Y-35135000D03*
%TO.P,SW6,2,2_2*%
%TO.N,Net-(D18-A)*%
X100190000Y-37675000D03*
%TD*%
%TO.P,SW3,1,1_1*%
%TO.N,/COL2*%
X87475000Y-35135000D03*
%TO.P,SW3,2,2_2*%
%TO.N,Net-(D15-A)*%
X81125000Y-37675000D03*
%TD*%
D15*
%TO.P,U1,1,EN_1*%
%TO.N,unconnected-(U1-EN-Pad1)*%
X57890000Y-78170000D03*
D16*
%TO.P,U1,2,D3_2*%
%TO.N,/ROW0*%
X57890000Y-80710000D03*
%TO.P,U1,3,D2_3*%
%TO.N,/COL2*%
X57890000Y-83250000D03*
%TO.P,U1,4,D1_4*%
%TO.N,/COL1*%
X57890000Y-85790000D03*
%TO.P,U1,5,D0_5*%
%TO.N,/COL0*%
X57890000Y-88330000D03*
%TO.P,U1,6,D4_6*%
%TO.N,/ROW1*%
X57890000Y-90870000D03*
%TO.P,U1,7,D5_7*%
%TO.N,/BL*%
X57890000Y-93410000D03*
%TO.P,U1,8,3V3_8*%
%TO.N,/VCC*%
X57890000Y-95950000D03*
%TO.P,U1,9,VBus_9*%
%TO.N,+5V*%
X80750000Y-95950000D03*
%TO.P,U1,10,GND_10*%
%TO.N,GND*%
X80750000Y-93410000D03*
%TO.P,U1,11,D6_11*%
%TO.N,/CS*%
X80750000Y-90870000D03*
%TO.P,U1,12,D7_12*%
%TO.N,/RST*%
X80750000Y-88330000D03*
%TO.P,U1,13,D8_13*%
%TO.N,/DC*%
X80750000Y-85790000D03*
%TO.P,U1,14,D10_14*%
%TO.N,/buzz*%
X80750000Y-83250000D03*
%TO.P,U1,15,RX_15*%
%TO.N,/SDA*%
X80750000Y-80710000D03*
%TO.P,U1,16,TX_16*%
%TO.N,/SCL*%
X80750000Y-78170000D03*
%TD*%
D10*
%TO.P,C3,1*%
%TO.N,/VCC*%
X131080000Y-61992500D03*
D11*
%TO.P,C3,2*%
%TO.N,GND*%
X146080000Y-61992500D03*
%TD*%
D12*
%TO.P,SW7,1,1_1*%
%TO.N,/COL2*%
X106540000Y-54170000D03*
%TO.P,SW7,2,2_2*%
%TO.N,Net-(D19-A)*%
X100190000Y-56710000D03*
%TD*%
%TO.P,SW1,1,1_1*%
%TO.N,/COL0*%
X68210000Y-35170000D03*
%TO.P,SW1,2,2_2*%
%TO.N,Net-(D13-A)*%
X61860000Y-37710000D03*
%TD*%
D10*
%TO.P,D14,1,K_1*%
%TO.N,/ROW0*%
X116170000Y-41000000D03*
D11*
%TO.P,D14,2,A_2*%
%TO.N,Net-(D14-A)*%
X126330000Y-41000000D03*
%TD*%
D12*
%TO.P,SW5,1,1_1*%
%TO.N,/COL0*%
X87540000Y-54170000D03*
%TO.P,SW5,2,2_2*%
%TO.N,Net-(D17-A)*%
X81190000Y-56710000D03*
%TD*%
D10*
%TO.P,D19,1,K_1*%
%TO.N,/ROW1*%
X116170000Y-65000000D03*
D11*
%TO.P,D19,2,A_2*%
%TO.N,Net-(D19-A)*%
X126330000Y-65000000D03*
%TD*%
D10*
%TO.P,D18,1,K_1*%
%TO.N,/ROW1*%
X116250000Y-59000000D03*
D11*
%TO.P,D18,2,A_2*%
%TO.N,Net-(D18-A)*%
X126410000Y-59000000D03*
%TD*%
D10*
%TO.P,C2,1*%
%TO.N,GND*%
X131080000Y-53992500D03*
D11*
%TO.P,C2,2*%
%TO.N,+5V*%
X146080000Y-53992500D03*
%TD*%
D10*
%TO.P,BZ1,1,+_1*%
%TO.N,/buzz*%
X130830000Y-37992500D03*
D11*
%TO.P,BZ1,2,-_2*%
%TO.N,GND*%
X145830000Y-37992500D03*
%TD*%
D17*
%TO.N,GND*%
X116500000Y-74250000D03*
X81942169Y-90029999D03*
X112750000Y-74000000D03*
%TO.N,+5V*%
X143250000Y-60250000D03*
X144000000Y-58500000D03*
%TO.N,/VCC*%
X111982817Y-74982817D03*
X116500000Y-75050003D03*
X73000000Y-87500000D03*
X74250000Y-86250000D03*
%TO.N,/ROW0*%
X116250000Y-44750000D03*
X116250000Y-43400000D03*
%TO.N,Net-(D17-A)*%
X83250000Y-63500000D03*
X84500000Y-64000000D03*
%TO.N,/ROW1*%
X75000000Y-80000000D03*
X116181534Y-56568466D03*
X116250000Y-61000000D03*
X70000000Y-87500000D03*
%TO.N,Net-(D19-A)*%
X114000000Y-59700000D03*
X115500000Y-62250000D03*
X116770000Y-62250000D03*
X123982817Y-62982817D03*
X114000000Y-60900000D03*
%TO.N,/CS*%
X79600000Y-91500000D03*
X84500000Y-88830000D03*
%TO.N,/RST*%
X71424265Y-89924265D03*
X74850000Y-85710760D03*
%TO.N,/BL*%
X70250000Y-89250000D03*
X82250000Y-87500000D03*
%TD*%
%TO.N,*%
D18*
X69670000Y-35170000D02*
X69610000Y-35170000D01*
X69750000Y-35250000D02*
X69670000Y-35170000D01*
%TO.N,/buzz*%
X128110000Y-40712500D02*
X128110000Y-59704164D01*
X130830000Y-37992500D02*
X128110000Y-40712500D01*
X81225000Y-82775000D02*
X80750000Y-83250000D01*
X105039164Y-82775000D02*
X81225000Y-82775000D01*
X128110000Y-59704164D02*
X105039164Y-82775000D01*
%TO.N,GND*%
X137830000Y-45992500D02*
X145830000Y-37992500D01*
X131080000Y-58411522D02*
X116500000Y-72991522D01*
X112500000Y-73750000D02*
X88250000Y-73750000D01*
X112750000Y-74000000D02*
X112500000Y-73750000D01*
X82050000Y-90137830D02*
X81942169Y-90029999D01*
X131080000Y-45992500D02*
X137830000Y-45992500D01*
X131080000Y-53992500D02*
X138080000Y-53992500D01*
X131080000Y-53992500D02*
X131080000Y-58411522D01*
X116500000Y-72991522D02*
X116500000Y-74250000D01*
X80750000Y-93410000D02*
X82050000Y-92110000D01*
X82050000Y-92110000D02*
X82050000Y-90137830D01*
X131080000Y-45992500D02*
X131080000Y-53992500D01*
X138080000Y-53992500D02*
X146080000Y-61992500D01*
%TO.N,+5V*%
X144000000Y-56072500D02*
X144000000Y-58500000D01*
X114070000Y-89430000D02*
X79180000Y-89430000D01*
X143250000Y-60250000D02*
X114070000Y-89430000D01*
X79000000Y-89250000D02*
X79000000Y-94200000D01*
X146080000Y-53992500D02*
X144000000Y-56072500D01*
X79000000Y-94200000D02*
X80750000Y-95950000D01*
X79180000Y-89430000D02*
X79000000Y-89250000D01*
%TO.N,/VCC*%
X111982817Y-74982817D02*
X108240634Y-78725000D01*
X83890000Y-79610000D02*
X87750000Y-75750000D01*
X74250000Y-85454365D02*
X80094365Y-79610000D01*
X57890000Y-95950000D02*
X64550000Y-95950000D01*
X87275000Y-78153859D02*
X87275000Y-76725000D01*
X87275000Y-76725000D02*
X88250000Y-75750000D01*
X87750000Y-75750000D02*
X88250000Y-75750000D01*
X108240634Y-78725000D02*
X87846141Y-78725000D01*
X64550000Y-95950000D02*
X73000000Y-87500000D01*
X131080000Y-61992500D02*
X131080000Y-62992500D01*
X74250000Y-86250000D02*
X74250000Y-85454365D01*
X87846141Y-78725000D02*
X87275000Y-78153859D01*
X131080000Y-62992500D02*
X119022497Y-75050003D01*
X119022497Y-75050003D02*
X116500000Y-75050003D01*
X80094365Y-79610000D02*
X83890000Y-79610000D01*
%TO.N,/ROW0*%
X132130000Y-37007756D02*
X132130000Y-38977244D01*
X85681141Y-86890000D02*
X57234365Y-86890000D01*
X103654850Y-84725000D02*
X87846141Y-84725000D01*
X129530000Y-38726814D02*
X129530000Y-37007756D01*
X132130000Y-38977244D02*
X128510000Y-42597244D01*
X56190000Y-85845635D02*
X56190000Y-82410000D01*
X116250000Y-47000000D02*
X122248478Y-47000000D01*
X127710000Y-40546814D02*
X129530000Y-38726814D01*
X116170000Y-42670000D02*
X116170000Y-41000000D01*
X122248478Y-47000000D02*
X127710000Y-52461522D01*
X128510000Y-42597244D02*
X128510000Y-59869850D01*
X116250000Y-43400000D02*
X116250000Y-42750000D01*
X116250000Y-42750000D02*
X116170000Y-42670000D01*
X127710000Y-52461522D02*
X127710000Y-40546814D01*
X128510000Y-59869850D02*
X103654850Y-84725000D01*
X87846141Y-84725000D02*
X85681141Y-86890000D01*
X116250000Y-47000000D02*
X116250000Y-44750000D01*
X56190000Y-82410000D02*
X57890000Y-80710000D01*
X57234365Y-86890000D02*
X56190000Y-85845635D01*
X129530000Y-37007756D02*
X129845256Y-36692500D01*
X131814744Y-36692500D02*
X132130000Y-37007756D01*
X116170000Y-35000000D02*
X116170000Y-41000000D01*
X129845256Y-36692500D02*
X131814744Y-36692500D01*
%TO.N,Net-(D13-A)*%
X61860000Y-37710000D02*
X61860000Y-32140000D01*
X61860000Y-32140000D02*
X62000000Y-32000000D01*
X126000000Y-32000000D02*
X126330000Y-32330000D01*
X62000000Y-32000000D02*
X126000000Y-32000000D01*
X126330000Y-32330000D02*
X126330000Y-35000000D01*
%TO.N,Net-(D14-A)*%
X127630000Y-33064314D02*
X127630000Y-39700000D01*
X127630000Y-39700000D02*
X126330000Y-41000000D01*
X61834315Y-31600000D02*
X126165686Y-31600000D01*
X126165686Y-31600000D02*
X127630000Y-33064314D01*
X61940000Y-56710000D02*
X56190000Y-50960000D01*
X56190000Y-37244315D02*
X61834315Y-31600000D01*
X56190000Y-50960000D02*
X56190000Y-37244315D01*
%TO.N,Net-(D15-A)*%
X113500000Y-44000000D02*
X126500000Y-44000000D01*
X126410000Y-44090000D02*
X126410000Y-47000000D01*
X81125000Y-37675000D02*
X81125000Y-32875000D01*
X126500000Y-44000000D02*
X126410000Y-44090000D01*
X113750000Y-32750000D02*
X113500000Y-33000000D01*
X113500000Y-33000000D02*
X113500000Y-44000000D01*
X81125000Y-32875000D02*
X81000000Y-32750000D01*
X81000000Y-32750000D02*
X113750000Y-32750000D01*
%TO.N,Net-(D17-A)*%
X127710000Y-59538478D02*
X127710000Y-54300000D01*
X108965256Y-64000000D02*
X112665256Y-60300000D01*
X112665256Y-60300000D02*
X126948478Y-60300000D01*
X127710000Y-54300000D02*
X126410000Y-53000000D01*
X84500000Y-64000000D02*
X108965256Y-64000000D01*
X81190000Y-61440000D02*
X83250000Y-63500000D01*
X81190000Y-56710000D02*
X81190000Y-61440000D01*
X126948478Y-60300000D02*
X127710000Y-59538478D01*
%TO.N,/ROW1*%
X116170000Y-65000000D02*
X116170000Y-61080000D01*
X66630000Y-90870000D02*
X70000000Y-87500000D01*
X77164365Y-80000000D02*
X92164365Y-65000000D01*
X57890000Y-90870000D02*
X66630000Y-90870000D01*
X116170000Y-61080000D02*
X116250000Y-61000000D01*
X75000000Y-80000000D02*
X77164365Y-80000000D01*
X92164365Y-65000000D02*
X116170000Y-65000000D01*
X116250000Y-59000000D02*
X116250000Y-56636932D01*
X116250000Y-56636932D02*
X116181534Y-56568466D01*
%TO.N,Net-(D18-A)*%
X119461598Y-59000000D02*
X126410000Y-59000000D01*
X100190000Y-37675000D02*
X100190000Y-39728402D01*
X100190000Y-39728402D02*
X119461598Y-59000000D01*
%TO.N,Net-(D19-A)*%
X111010000Y-56710000D02*
X114000000Y-59700000D01*
X114150000Y-60900000D02*
X115500000Y-62250000D01*
X114000000Y-60900000D02*
X114150000Y-60900000D01*
X116770000Y-62250000D02*
X123250000Y-62250000D01*
X123250000Y-62250000D02*
X123982817Y-62982817D01*
X100190000Y-56710000D02*
X111010000Y-56710000D01*
%TO.N,/CS*%
X80750000Y-90870000D02*
X80230000Y-90870000D01*
X84500000Y-88830000D02*
X88548859Y-88830000D01*
X89225000Y-88153859D02*
X89225000Y-86725000D01*
X89225000Y-86725000D02*
X88250000Y-85750000D01*
X80230000Y-90870000D02*
X79600000Y-91500000D01*
X88548859Y-88830000D02*
X89225000Y-88153859D01*
%TO.N,/RST*%
X88250000Y-81750000D02*
X87850000Y-82150000D01*
X73018530Y-88330000D02*
X80750000Y-88330000D01*
X78410760Y-82150000D02*
X74850000Y-85710760D01*
X87850000Y-82150000D02*
X78410760Y-82150000D01*
X71424265Y-89924265D02*
X73018530Y-88330000D01*
%TO.N,/DC*%
X86210000Y-85790000D02*
X88250000Y-83750000D01*
X80750000Y-85790000D02*
X86210000Y-85790000D01*
%TO.N,/SCL*%
X88653859Y-74775000D02*
X89225000Y-75346141D01*
X80750000Y-78170000D02*
X84145000Y-74775000D01*
X89225000Y-76775000D02*
X88250000Y-77750000D01*
X84145000Y-74775000D02*
X88653859Y-74775000D01*
X89225000Y-75346141D02*
X89225000Y-76775000D01*
%TO.N,/BL*%
X70250000Y-89250000D02*
X69500000Y-89250000D01*
X82500000Y-87750000D02*
X82250000Y-87500000D01*
X65340000Y-93410000D02*
X57890000Y-93410000D01*
X69500000Y-89250000D02*
X65340000Y-93410000D01*
X88250000Y-87750000D02*
X82500000Y-87750000D01*
%TO.N,/SDA*%
X87290000Y-80710000D02*
X80750000Y-80710000D01*
X88250000Y-79750000D02*
X87290000Y-80710000D01*
%TO.N,/COL0*%
X55790000Y-86230000D02*
X55790000Y-65849899D01*
X87210000Y-54170000D02*
X87540000Y-54170000D01*
X55790000Y-65849899D02*
X66890000Y-54749899D01*
X84750000Y-54750000D02*
X85330000Y-54170000D01*
X66890000Y-53590101D02*
X67710101Y-52770000D01*
X68210000Y-35170000D02*
X87210000Y-54170000D01*
X85330000Y-54170000D02*
X87540000Y-54170000D01*
X82770000Y-52770000D02*
X84750000Y-54750000D01*
X57890000Y-88330000D02*
X55790000Y-86230000D01*
X67710101Y-52770000D02*
X82770000Y-52770000D01*
X66890000Y-54749899D02*
X66890000Y-53590101D01*
%TO.N,/COL1*%
X57234365Y-82150000D02*
X56590000Y-82794365D01*
X68290000Y-72405635D02*
X58545635Y-82150000D01*
X56590000Y-84490000D02*
X57890000Y-85790000D01*
X56590000Y-82794365D02*
X56590000Y-84490000D01*
X58545635Y-82150000D02*
X57234365Y-82150000D01*
X80629899Y-54170000D02*
X68290000Y-54170000D01*
X89000000Y-55750000D02*
X82209899Y-55750000D01*
X82209899Y-55750000D02*
X80629899Y-54170000D01*
X104905000Y-33500000D02*
X86000000Y-33500000D01*
X86000000Y-33500000D02*
X86000000Y-37956598D01*
X89000000Y-40956598D02*
X89000000Y-55750000D01*
X86000000Y-37956598D02*
X89000000Y-40956598D01*
X68290000Y-54170000D02*
X68290000Y-72405635D01*
X106540000Y-35135000D02*
X104905000Y-33500000D01*
%TO.N,/COL2*%
X87475000Y-37725000D02*
X88250000Y-38500000D01*
X91000000Y-56632944D02*
X64382944Y-83250000D01*
X106510000Y-54170000D02*
X106540000Y-54170000D01*
X89997056Y-38500000D02*
X91215000Y-39717944D01*
X91215000Y-41285000D02*
X91000000Y-41500000D01*
X87475000Y-35135000D02*
X87475000Y-37725000D01*
X91215000Y-39717944D02*
X91215000Y-41285000D01*
X64382944Y-83250000D02*
X57890000Y-83250000D01*
X88250000Y-38500000D02*
X89997056Y-38500000D01*
X87475000Y-35135000D02*
X106510000Y-54170000D01*
X91000000Y-41500000D02*
X91000000Y-56632944D01*
%TD*%
M02*
