M48
; DRILL file KiCad 10.0.3 date 2026-08-04T17:22:04
; FORMAT={-:-/ absolute / metric / decimal}
; #@! TF.CreationDate,2026-08-04T17:22:04-04:00
; #@! TF.GenerationSoftware,Kicad,Pcbnew,10.0.3
; #@! TF.FileFunction,Plated,1,2,PTH
FMAT,2
METRIC
; #@! TA.AperFunction,Plated,PTH,ViaDrill
T1C0.300
; #@! TA.AperFunction,Plated,PTH,ComponentDrill
T2C0.900
; #@! TA.AperFunction,Plated,PTH,ComponentDrill
T3C1.000
; #@! TA.AperFunction,Plated,PTH,ComponentDrill
T4C1.500
%
G90
G05
T1
X70.0Y-87.5
X70.25Y-89.25
X71.424Y-89.924
X73.0Y-87.5
X74.25Y-86.25
X74.85Y-85.711
X75.0Y-80.0
X79.6Y-91.5
X81.942Y-90.03
X82.25Y-87.5
X83.25Y-63.5
X84.5Y-64.0
X84.5Y-88.83
X88.2Y-76.6
X89.0Y-82.2
X111.983Y-74.983
X112.75Y-74.0
X114.0Y-59.7
X114.0Y-60.9
X115.5Y-62.25
X116.182Y-56.568
X116.25Y-43.4
X116.25Y-44.75
X116.25Y-61.0
X116.5Y-74.25
X116.5Y-75.05
X116.77Y-62.25
X123.983Y-62.983
X130.83Y-37.992
X143.25Y-60.25
X144.0Y-58.5
X145.811Y-38.011
T2
X57.89Y-78.17
X57.89Y-80.71
X57.89Y-83.25
X57.89Y-85.79
X57.89Y-88.33
X57.89Y-90.87
X57.89Y-93.41
X57.89Y-95.95
X80.75Y-78.17
X80.75Y-80.71
X80.75Y-83.25
X80.75Y-85.79
X80.75Y-88.33
X80.75Y-90.87
X80.75Y-93.41
X80.75Y-95.95
T3
X90.6Y-73.0
X90.6Y-75.54
X90.6Y-78.08
X90.6Y-80.62
X90.6Y-83.16
X90.6Y-85.7
X90.6Y-88.24
X90.6Y-90.78
X116.17Y-35.0
X116.17Y-41.0
X116.17Y-65.0
X116.25Y-47.0
X116.25Y-53.0
X116.25Y-59.0
X126.33Y-35.0
X126.33Y-41.0
X126.33Y-65.0
X126.41Y-47.0
X126.41Y-53.0
X126.41Y-59.0
X131.08Y-45.992
X131.08Y-53.992
X131.08Y-61.992
X135.0Y-36.8
X142.6Y-36.8
X146.08Y-45.992
X146.08Y-53.992
X146.08Y-61.992
T4
X61.86Y-37.71
X61.94Y-56.71
X68.21Y-35.17
X68.29Y-54.17
X81.125Y-37.675
X81.19Y-56.71
X87.475Y-35.135
X87.54Y-54.17
X100.19Y-37.675
X100.19Y-56.71
X106.54Y-35.135
X106.54Y-54.17
M30
